HIERARCHY
ROOT HipCenter
{
    OFFSET 0.0 0.0 -0.0
    CHANNELS 6 Xposition Yposition Zposition Zrotation Xrotation Yrotation
    JOINT Spine
    {
        OFFSET 0.0 12.037393569946289 0.0
        CHANNELS 3 Zrotation Xrotation Yrotation
        JOINT ShoulderCenter
        {
            OFFSET 0.0 31.42022705078125 0.0
            CHANNELS 3 Zrotation Xrotation Yrotation
            JOINT LeftShoulder
            {
                OFFSET 17.00136947631836 0.0 0.0
                CHANNELS 3 Zrotation Xrotation Yrotation
                JOINT LeftElbow
                {
                    OFFSET 30.429115295410156 0.0 0.0
                    CHANNELS 3 Zrotation Xrotation Yrotation
                    JOINT LeftWrist
                    {
                        OFFSET 26.316957473754883 0.0 0.0
                        CHANNELS 3 Zrotation Xrotation Yrotation
                        JOINT LeftHand
                        {
                            OFFSET 2.5908823013305664 0.0 0.0
                            CHANNELS 3 Zrotation Xrotation Yrotation
                            End Site
                            {
                                OFFSET 1.0363529920578003 0.0 0.0
                            }
                        }
                    }
                }
            }
            JOINT RightShoulder
            {
                OFFSET -17.00136947631836 0.0 0.0
                CHANNELS 3 Zrotation Xrotation Yrotation
                JOINT RightElbow
                {
                    OFFSET -30.429115295410156 0.0 0.0
                    CHANNELS 3 Zrotation Xrotation Yrotation
                    JOINT RightWrist
                    {
                        OFFSET -26.316957473754883 0.0 0.0
                        CHANNELS 3 Zrotation Xrotation Yrotation
                        JOINT RightHand
                        {
                            OFFSET -2.5908823013305664 0.0 0.0
                            CHANNELS 3 Zrotation Xrotation Yrotation
                            End Site
                            {
                                OFFSET -1.0363529920578003 0.0 0.0
                            }
                        }
                    }
                }
            }
            End Site
            {
                OFFSET 0.0 12.56809139251709 0.0
            }
        }
    }
    JOINT LeftHip
    {
        OFFSET 16.76116180419922 0.0 0.0
        CHANNELS 3 Zrotation Xrotation Yrotation
        JOINT LeftKnee
        {
            OFFSET 0.0 -35.00282287597656 0.0
            CHANNELS 3 Zrotation Xrotation Yrotation
            JOINT LeftAnkle
            {
                OFFSET 0.0 -41.172569274902344 0.0
                CHANNELS 3 Zrotation Xrotation Yrotation
                JOINT LeftFoot
                {
                    OFFSET 0.0 -12.274750709533691 0.0
                    CHANNELS 3 Zrotation Xrotation Yrotation
                    End Site
                    {
                        OFFSET 0.0 0.0 4.909900188446045
                    }
                }
            }
        }
    }
    JOINT RightHip
    {
        OFFSET -16.76116180419922 0.0 0.0
        CHANNELS 3 Zrotation Xrotation Yrotation
        JOINT RightKnee
        {
            OFFSET 0.0 -35.00282287597656 0.0
            CHANNELS 3 Zrotation Xrotation Yrotation
            JOINT RightAnkle
            {
                OFFSET 0.0 -41.172569274902344 0.0
                CHANNELS 3 Zrotation Xrotation Yrotation
                JOINT RightFoot
                {
                    OFFSET 0.0 -12.274750709533691 0.0
                    CHANNELS 3 Zrotation Xrotation Yrotation
                    End Site
                    {
                        OFFSET 0.0 0.0 4.909900188446045
                    }
                }
            }
        }
    }
}
MOTION
Frames: 7
Frame Time: 0.03333333333333333
53.20000076293945 -15.600000381469727 118.79999542236328 44.292680127530176 -61.61419152702279 -142.92330210576637 -0.33053887861553083 -8.552353621354753 -0.7410992396929826 -1.8937765960308032e-06 -4.139485956201944e-06 9.729452435812053 111.09684302343227 -25.03826894073065 -132.69229700786818 1.0866255548377871e-07 -2.647882612782628e-06 59.56612855356103 -179.9999967999049 -46.83370298828075 -145.97151703460636 4.770832022195274e-15 -1.5902773407317582e-15 -1.5902773407317582e-15 -109.831804578513 1.0107734462232227 130.4337646743124 2.103794290122342e-06 -7.336559300215543e-06 -62.246709257016526 179.99999775005503 -20.46892646142052 148.16275320075928 -1.5902773407317584e-15 -3.1805546814635168e-15 -4.4139062980501586e-32 122.07086617167424 -72.99468459405114 154.62379233497256 30.031582517055345 9.102090095669004 -19.46019515302897 -51.156357326100476 -52.066508835620304 10.449437210062438 3.180554681463516e-15 0.0 0.0 -177.76199943801802 -83.54740365326062 145.8305825060673 -20.54070544098442 26.669228728034675 24.245495980769014 14.08315733432772 -72.08788990156418 -24.10659473264818 -1.5902773407317584e-15 6.620859447075238e-32 -4.770832022195275e-15
53.29999923706055 -15.000000953674316 118.4000015258789 42.397436987782534 -58.83639165648082 -144.65061809560402 -0.04454056495286669 -8.962699426953655 -0.7903912913515134 7.299830601457595e-07 4.583902371959238e-06 9.437279295262735 112.52761466981924 -26.939057524110286 -135.30642048454075 3.0314903613465637e-06 -2.66381629188669e-07 62.01444097360376 -179.99999883872553 -48.63307129431099 -148.7767719850633 3.1805546814635168e-15 1.5902773407317584e-15 -4.4139062980501586e-32 -109.37809221955986 0.4976762520237222 134.49740686182068 5.817885056018135e-06 -6.799081919694677e-06 -65.59742376902307 179.99999964789922 -18.64040299718677 147.07013560119765 1.5902773407317584e-15 4.4139062980501586e-32 3.1805546814635168e-15 109.73973345416023 -73.6228519417385 140.57218270406366 28.287499972995814 9.57558555396368 -21.41391711074117 -48.39489122977776 -54.28105555007205 13.777516116134498 0.0 0.0 -3.1805546814635168e-15 173.3563696841607 -87.35115553087172 138.0298079270154 -19.74146602806299 26.834715873128815 25.325308889378093 2.507746296999248 -72.98377238956465 -36.47441136694285 8.827812596100317e-32 6.3611093629270335e-15 -1.5902773407317584e-15
53.29999923706055 -14.200000762939453 117.9000015258789 40.13547744754324 -56.29341349728558 -146.50737229535892 -0.2634842502269746 -9.224585888456616 -0.826525684712866 -4.342808941959679e-07 2.6936253025795315e-06 9.183061987224463 114.72530703548887 -29.150437281993618 -137.12752834731788 1.8229722412638183e-06 5.567029302471266e-06 64.50656429757342 179.9999961484109 -51.34830339661191 -145.44310211233758 -1.5902773407317584e-15 -4.4139062980501586e-32 3.1805546814635168e-15 -109.44413324221233 0.12384844199315688 138.48110056113038 6.559804422040809e-07 5.090561809855295e-06 -69.18080176727328 -179.99999997799287 -20.06287462055936 146.37399468004205 -6.3611093629270335e-15 -8.827812596100317e-32 1.5902773407317584e-15 95.68034672966732 -73.53828418442384 124.10200954225785 26.264318808272773 10.362396256678709 -24.51326121887619 -43.62828830380237 -57.52574991357482 19.338939155878446 0.0 0.0 5.565970692561154e-15 25.897847830354824 -87.98195823807875 -6.300870511025681 -17.74885252985595 26.93141218893332 25.8888511768537 -11.730056817374809 -73.26083523699849 -51.202668472656846 0.0 0.0 -4.770832022195275e-15
53.20000076293945 -13.600000381469727 117.49999237060547 38.29018183674378 -53.17838290779421 -148.08594965255946 0.5299044370703873 -9.210939225126772 -0.7544375753978364 1.2060673777516853e-06 -3.141100497807837e-07 9.227312679109337 115.60104643802985 -31.0742176550738 -138.8224325428974 1.7225196853522096e-06 4.766180246105074e-06 66.42911542963141 -179.99999930109684 -45.415619757218494 -144.82149003297886 7.951386703658792e-15 3.1805546814635168e-15 -1.5902773407317588e-15 -109.49942034026921 -0.21966066437057355 142.6296693932619 -6.508786950621532e-07 -1.9070764880209657e-06 -72.9790143853808 -179.99999697223484 -21.730911864191228 145.42571173382547 -4.770832022195273e-15 3.180554681463515e-15 -1.5902773407317576e-15 81.49629993186826 -72.41903148084589 106.3963698599653 24.281928609709738 11.345405252380495 -28.48560195911459 -35.10739518984958 -62.13767837707806 28.989655251401512 -3.1805546814635168e-15 -6.3611093629270335e-15 -2.3854160110976376e-15 11.466485723922025 -83.01132816600092 -17.697825097950965 -15.09458583135944 26.569101008225235 25.766550676058475 -26.990287869973475 -71.75434839873165 -66.94330512788618 1.5902773407317584e-15 0.0 0.0
52.999996185302734 -13.199999809265137 116.99999237060547 35.537651308846584 -49.918317655172046 -150.6470640918903 0.8777346611822336 -8.732365450952448 -0.6563337722595072 2.22240964943432e-06 -1.6961434051461837e-06 9.291039049322267 116.66124397148829 -32.61138018515447 -140.2261387808926 1.9792838701847074e-06 8.394339329006901e-09 68.18221210022998 -179.9999928307329 -46.22408989337108 -144.55495313200973 -3.310429723537619e-32 1.5902773407317584e-15 2.3854160110976376e-15 -109.472998113189 -0.7574179904287233 146.59921589038927 4.145851374070829e-06 4.333345422325527e-06 -77.17644199688647 -179.99999297452433 -17.044091407948248 144.36255545929512 6.3611093629270335e-15 0.0 0.0 68.80126881756668 -70.40603686995156 90.12373349559343 23.002848980976992 12.669308476859486 -32.665418494619956 -22.386232900632674 -65.8625290927659 42.384726015509976 -8.827812596100317e-32 6.3611093629270335e-15 1.5902773407317584e-15 10.047997132884069 -77.57164814181523 -15.630235503893326 -12.858336044588407 26.20372412015448 24.984106476272757 -35.499295643520064 -69.95907947507543 -75.28032870155926 0.0 -6.3611093629270335e-15 0.0
52.70000076293945 -12.800000190734863 116.5999984741211 33.49518974748478 -47.50421157013832 -152.29478785705732 0.9775572597246635 -9.539728330339106 -0.6555782368762516 -1.267287605101091e-06 1.5170062471569566e-06 9.186468607355936 117.143567503898 -34.05169095939299 -142.76813128649286 -4.260104442874173e-07 -3.1435234684303144e-06 70.93182978319555 179.9999977915915 -44.35765337818541 -146.69746092722212 3.975693351829396e-15 -8.276074308844047e-32 -2.3854160110976376e-15 -109.71836059828921 -1.926046024371695 150.45977146713238 -2.0485302306325732e-06 -9.016918058450149e-07 -81.15928580216676 179.99999782446423 -25.517324515030264 144.87125048490583 0.0 0.0 1.5902773407317584e-15 59.79082281372588 -68.37073204508306 77.71878981303256 21.821984528156783 13.66200426487991 -36.25522589228519 -6.7468307162158165 -68.26765814747496 59.08057858188581 4.855296927855174e-31 6.3611093629270335e-15 -8.74652537402467e-15 7.85875506089032 -73.00179436350243 -14.044162177688454 -10.413757223840992 25.423134020249915 24.13253981808896 -42.80173543253592 -67.87467994741857 -82.99018557343388 0.0 0.0 0.0
52.39999771118164 -12.700000762939453 116.19999694824219 30.39870970480118 -44.01005893802526 -154.85340726682068 0.7931480122282659 -8.740716011785238 -0.5712009453700774 -3.311964942140174e-07 6.152392029401994e-06 9.48134332756856 117.65242822095695 -35.29794560041579 -144.42332766588734 -3.9314812938699666e-06 2.1317778157600513e-06 73.03622218209951 179.99999553041187 -44.803652300143185 -143.64429256873115 -2.3854160110976376e-15 -1.1586504032381667e-31 5.565970692561154e-15 -109.7622689641407 -2.6118409636346374 154.02578340797265 -1.7803075286255697e-06 -1.340591492854807e-06 -85.72123083643358 -179.99999889071427 -26.623555079843886 142.51084613743765 -1.590277340731758e-15 3.1805546814635164e-15 -7.156248033292912e-15 51.27427871048503 -65.31268716696731 67.24486575937269 21.056493412286358 14.542277113678763 -38.179076376210624 3.103154657112683 -68.89413134635008 69.04225702846517 -3.1805546814635168e-15 -6.3611093629270335e-15 -1.7655625192200634e-31 7.646541446176287 -67.8727283319305 -11.838079317797542 -9.854586114793817 24.865134967172107 23.27468999129143 -46.0004177957109 -66.67152551140079 -86.13681486872389 -1.5902773407317584e-15 0.0 0.0
